# xmcd CD database file
# Generated: sam mar 27 21:34:13 2004 by KSCD
# 
# Track frame offsets:
#       150
#       11722
#       29584
#       44562
#       59723
#       70444
#       89942
#       104803
#       124754
#       147862
#
# Disc length: 2243 seconds
#
# Revision: 1
# Processed by: cddbd v1.5PL3 Copyright (c) Steve Scherf et al.
# Submitted via: Kscd 1.3.3
#
DISCID=a508c10a
DTITLE=LUNA NEGRA - Memoria Divina
DYEAR=1900
DGENRE=
TTITLE0=El suplicio
TTITLE1=Beber
TTITLE2=Verguenza
TTITLE3=Piececitos
TTITLE4=Balada
TTITLE5=El surtidor
TTITLE6=Eloge de la chanson
TTITLE7=Memoria divina
TTITLE8=La tierra
TTITLE9=Ultimo arbol
EXTD=
EXTT0=
EXTT1=
EXTT2=
EXTT3=
EXTT4=
EXTT5=
EXTT6=
EXTT7=
EXTT8=
EXTT9=
PLAYORDER=
